<!-- Generated by IcoMoon.io -->
<svg version="1.1" xmlns="http://www.w3.org/2000/svg" width="32" height="32" viewBox="0 0 32 32">
<title>dashboard</title>
<path fill="#6d7986" d="M25.318 6.857c1.43 0 2.593 1.162 2.593 2.591v11.657c0 1.429-1.164 2.591-2.593 2.591h-5.187v1.295c0 0.714-0.581 1.295-1.297 1.295h-5.187c-0.715 0-1.297-0.581-1.297-1.295v-1.295h-5.187c-1.43 0-2.593-1.162-2.593-2.591v-11.657c0-1.429 1.164-2.591 2.593-2.591h18.153zM13.648 24.99h5.187v-3.886h-5.187v3.886zM25.318 22.4c0.715 0 1.297-0.581 1.297-1.295v0-11.657c0-0.714-0.581-1.295-1.297-1.295h-18.153c-0.715 0-1.297 0.581-1.297 1.295v11.657c0 0.714 0.581 1.295 1.297 1.295h5.187v-1.295c0-0.714 0.581-1.295 1.297-1.295h5.187c0.715 0 1.297 0.581 1.297 1.295v1.295h5.187z"></path>
<path fill="#6d7986" d="M23.353 12.030h-14.224c-0.357 0-0.647 0.282-0.647 0.631s0.289 0.631 0.647 0.631h14.224c0.357 0 0.647-0.282 0.647-0.631s-0.289-0.631-0.647-0.631z"></path>
<path fill="#6d7986" d="M22.089 17.202h-11.695c-0.359 0-0.65 0.31-0.65 0.694s0.291 0.694 0.65 0.694h11.695c0.359 0 0.65-0.31 0.65-0.694s-0.291-0.694-0.65-0.694z"></path>
</svg>
