<!-- Generated by IcoMoon.io -->
<svg version="1.1" xmlns="http://www.w3.org/2000/svg" width="32" height="32" viewBox="0 0 32 32">
<title>settings</title>
<path fill="#6d7986" d="M10.785 21.244l-0.015-0.015c-0.204-0.203-0.534-0.202-0.737 0.002s-0.202 0.534 0.002 0.737l0.017 0.017c0.102 0.101 0.234 0.151 0.367 0.151 0.134 0 0.268-0.052 0.37-0.154 0.202-0.204 0.201-0.534-0.004-0.737z"></path>
<path fill="#6d7986" d="M21.966 10.034c-3.29-3.29-8.643-3.29-11.932 0-2.693 2.693-3.248 6.877-1.35 10.173 0.144 0.249 0.462 0.335 0.711 0.191s0.335-0.462 0.191-0.711c-1.664-2.889-1.177-6.556 1.184-8.917 2.884-2.884 7.576-2.884 10.459 0s2.884 7.576 0 10.459c-2.375 2.375-6.057 2.853-8.954 1.162-0.248-0.145-0.567-0.061-0.712 0.187s-0.061 0.567 0.187 0.712c1.322 0.772 2.787 1.147 4.242 1.147 2.184 0 4.348-0.847 5.974-2.473 3.29-3.29 3.29-8.643 0-11.932z"></path>
<path fill="#6d7986" d="M29.331 13.712c0-0.256-0.186-0.474-0.439-0.514l-1.923-0.305-1.020-2.46 1.143-1.576c0.15-0.207 0.128-0.493-0.053-0.674l-3.23-3.228c-0.181-0.181-0.467-0.204-0.674-0.053l-1.574 1.144-2.461-1.019-0.306-1.922c-0.040-0.253-0.258-0.439-0.514-0.439 0 0-0 0-0 0l-4.567 0.002c-0.256 0-0.474 0.186-0.514 0.439l-0.305 1.923-2.46 1.020-1.576-1.143c-0.207-0.15-0.493-0.128-0.674 0.053l-3.228 3.23c-0.181 0.181-0.204 0.467-0.053 0.674l1.144 1.574-1.019 2.461-1.922 0.306c-0.253 0.040-0.439 0.258-0.439 0.515l0.002 4.567c0 0.256 0.186 0.474 0.439 0.514l1.923 0.305 1.020 2.46-1.143 1.576c-0.15 0.207-0.128 0.493 0.053 0.674l3.23 3.228c0.181 0.181 0.467 0.204 0.674 0.053l1.574-1.144 2.461 1.019 0.306 1.922c0.040 0.253 0.258 0.439 0.514 0.439 0 0 0 0 0 0l4.567-0.002c0.256-0 0.474-0.186 0.514-0.439l0.305-1.923 2.46-1.020 1.576 1.143c0.207 0.15 0.493 0.128 0.674-0.053l3.228-3.23c0.181-0.181 0.203-0.467 0.053-0.674l-1.144-1.574 1.019-2.461 1.922-0.306c0.253-0.040 0.439-0.258 0.439-0.515l-0.002-4.567zM26.521 18.116c-0.179 0.028-0.33 0.148-0.399 0.315l-1.241 3c-0.069 0.167-0.047 0.359 0.060 0.505l1.054 1.45-2.599 2.601-1.452-1.053c-0.147-0.106-0.338-0.129-0.505-0.059l-2.998 1.243c-0.167 0.069-0.287 0.221-0.315 0.399l-0.281 1.771-3.677 0.002-0.282-1.77c-0.028-0.179-0.148-0.33-0.315-0.399l-3-1.241c-0.064-0.027-0.132-0.040-0.199-0.040-0.108 0-0.216 0.034-0.306 0.099l-1.45 1.054-2.601-2.599 1.053-1.452c0.106-0.147 0.129-0.338 0.059-0.505l-1.243-2.998c-0.069-0.167-0.221-0.287-0.4-0.315l-1.771-0.281-0.002-3.677 1.77-0.282c0.179-0.029 0.33-0.148 0.399-0.315l1.241-3c0.069-0.167 0.047-0.359-0.060-0.505l-1.054-1.45 2.599-2.601 1.452 1.053c0.147 0.106 0.338 0.129 0.505 0.060l2.998-1.243c0.167-0.069 0.287-0.221 0.315-0.4l0.281-1.771 3.677-0.002 0.282 1.77c0.029 0.179 0.148 0.33 0.315 0.399l3 1.241c0.167 0.069 0.359 0.047 0.505-0.060l1.45-1.054 2.601 2.599-1.053 1.452c-0.106 0.147-0.129 0.338-0.059 0.505l1.243 2.998c0.069 0.167 0.221 0.287 0.4 0.315l1.771 0.281 0.002 3.677-1.77 0.282z"></path>
<path fill="#6d7986" d="M20.745 16.649c-0.651-0.592-1.527-0.849-2.391-0.714l-2.287-2.287c0.139-0.906-0.16-1.838-0.815-2.493-0.821-0.821-2.049-1.073-3.128-0.641-0.163 0.065-0.281 0.207-0.317 0.379s0.018 0.349 0.142 0.473l0.755 0.755c0.16 0.16 0.16 0.42 0 0.58s-0.42 0.16-0.58 0l-0.758-0.758c-0.124-0.124-0.301-0.177-0.472-0.142s-0.314 0.153-0.379 0.315c-0.454 1.121-0.157 2.422 0.739 3.236 0.652 0.593 1.528 0.849 2.393 0.714l2.285 2.285c-0.14 0.907 0.159 1.84 0.814 2.496 0.555 0.555 1.294 0.849 2.048 0.849 0.366 0 0.735-0.069 1.088-0.212 0.162-0.065 0.281-0.208 0.315-0.379s-0.018-0.349-0.142-0.472l-0.752-0.752c-0.16-0.16-0.16-0.42 0-0.58s0.42-0.16 0.58 0l0.75 0.75c0.124 0.124 0.301 0.177 0.473 0.142s0.314-0.154 0.379-0.316c0.449-1.119 0.151-2.416-0.743-3.228zM20.622 18.564c-0.566-0.566-1.487-0.566-2.053 0s-0.566 1.487 0 2.053l0.025 0.025c-0.411-0.045-0.804-0.228-1.11-0.533-0.467-0.467-0.651-1.155-0.481-1.794 0.048-0.18-0.003-0.371-0.135-0.503l-2.683-2.683c-0.099-0.099-0.232-0.153-0.368-0.153-0.045 0-0.089 0.006-0.133 0.017-0.617 0.164-1.263 0.009-1.729-0.415-0.342-0.311-0.548-0.732-0.597-1.174l0.030 0.030c0.566 0.566 1.487 0.566 2.053 0s0.566-1.487 0-2.053l-0.025-0.025c0.407 0.047 0.796 0.229 1.099 0.532 0.467 0.467 0.651 1.154 0.481 1.793-0.048 0.179 0.004 0.371 0.135 0.502l2.684 2.685c0.131 0.131 0.322 0.183 0.501 0.135 0.616-0.163 1.262-0.008 1.727 0.415 0.339 0.308 0.544 0.725 0.596 1.163l-0.018-0.018z"></path>
<path fill="#6d7986" d="M20.757 12.281c-0.858-1.097-2.075-1.868-3.427-2.172-0.28-0.063-0.559 0.113-0.622 0.394s0.113 0.559 0.394 0.622c1.117 0.251 2.124 0.89 2.835 1.798 0.103 0.131 0.256 0.2 0.411 0.2 0.112 0 0.225-0.036 0.321-0.111 0.227-0.177 0.266-0.505 0.089-0.731z"></path>
<path fill="#6d7986" d="M21.753 14.159l-0.008-0.024c-0.088-0.274-0.382-0.424-0.656-0.335s-0.424 0.382-0.336 0.656l0.007 0.020c0.071 0.221 0.275 0.363 0.496 0.363 0.053 0 0.106-0.008 0.159-0.025 0.274-0.088 0.425-0.381 0.338-0.655z"></path>
</svg>
